SplineFontDB: 3.0
FontName: apple2Medium
FullName: apple2 Medium
FamilyName: apple2
Weight: Medium
Copyright: Public domain font.  Share and enjoy.
UComments: "2014-8-28: Created." 
Version: 001.000
ItalicAngle: 0
UnderlinePosition: -131.072
UnderlineWidth: 131.072
Ascent: 896
Descent: 128
LayerCount: 2
Layer: 0 0 "Back"  1
Layer: 1 0 "Fore"  0
XUID: [1021 300 378951402 8285163]
FSType: 0
OS2Version: 0
OS2_WeightWidthSlopeOnly: 0
OS2_UseTypoMetrics: 1
CreationTime: 1409230077
ModificationTime: 1409257621
OS2TypoAscent: 0
OS2TypoAOffset: 1
OS2TypoDescent: 0
OS2TypoDOffset: 1
OS2TypoLinegap: 92
OS2WinAscent: 0
OS2WinAOffset: 1
OS2WinDescent: 0
OS2WinDOffset: 1
HheadAscent: 0
HheadAOffset: 1
HheadDescent: 0
HheadDOffset: 1
OS2Vendor: 'PfEd'
MarkAttachClasses: 1
DEI: 91125
Encoding: UnicodeBmp
UnicodeInterp: none
NameList: Adobe Glyph List
DisplaySize: 8
AntiAlias: 1
FitToEm: 1
WinInfo: 0 28 13
BeginPrivate: 0
EndPrivate
BeginChars: 256 41

StartChar: hyphen
Encoding: 45 45 0
Width: 896
VWidth: 0
Flags: HW
LayerCount: 2
Back
Fore
SplineSet
128 384 m 1
 128 512 l 1
 256 512 l 1
 384 512 l 1
 512 512 l 1
 640 512 l 1
 768 512 l 1
 768 384 l 1
 640 384 l 1
 512 384 l 1
 384 384 l 1
 256 384 l 1
 128 384 l 1
128 384 m 1
 128 512 l 1
 256 512 l 1
 384 512 l 1
 512 512 l 1
 640 512 l 1
 768 512 l 1
 768 384 l 1
 640 384 l 1
 512 384 l 1
 384 384 l 1
 256 384 l 1
 128 384 l 1
EndSplineSet
EndChar

StartChar: period
Encoding: 46 46 1
Width: 896
VWidth: 0
Flags: HW
LayerCount: 2
Back
Fore
SplineSet
384 0 m 1
 384 128 l 1
 512 128 l 1
 512 0 l 1
 384 0 l 1
384 0 m 1
 384 128 l 1
 512 128 l 1
 512 0 l 1
 384 0 l 1
EndSplineSet
EndChar

StartChar: slash
Encoding: 47 47 2
Width: 896
VWidth: 0
Flags: HW
LayerCount: 2
Back
Fore
SplineSet
128 128 m 1
 128 256 l 1
 256 256 l 1
 256 128 l 1
 128 128 l 1
256 256 m 1
 256 384 l 1
 384 384 l 1
 384 256 l 1
 256 256 l 1
384 384 m 1
 384 512 l 1
 512 512 l 1
 512 384 l 1
 384 384 l 1
512 512 m 1
 512 640 l 1
 640 640 l 1
 640 512 l 1
 512 512 l 1
640 640 m 1
 640 768 l 1
 768 768 l 1
 768 640 l 1
 640 640 l 1
128 128 m 1
 128 256 l 1
 256 256 l 1
 256 128 l 1
 128 128 l 1
256 256 m 1
 256 384 l 1
 384 384 l 1
 384 256 l 1
 256 256 l 1
384 384 m 1
 384 512 l 1
 512 512 l 1
 512 384 l 1
 384 384 l 1
512 512 m 1
 512 640 l 1
 640 640 l 1
 640 512 l 1
 512 512 l 1
640 640 m 1
 640 768 l 1
 768 768 l 1
 768 640 l 1
 640 640 l 1
EndSplineSet
EndChar

StartChar: zero
Encoding: 48 48 3
Width: 896
VWidth: 0
Flags: HW
LayerCount: 2
Back
Fore
SplineSet
256 0 m 1
 256 128 l 1
 384 128 l 1
 512 128 l 1
 640 128 l 1
 640 0 l 1
 512 0 l 1
 384 0 l 1
 256 0 l 1
128 128 m 1
 128 256 l 1
 128 384 l 1
 128 512 l 1
 128 640 l 1
 128 768 l 1
 256 768 l 1
 256 640 l 1
 256 512 l 1
 256 384 l 1
 384 384 l 1
 384 256 l 1
 256 256 l 1
 256 128 l 1
 128 128 l 1
640 128 m 1
 640 256 l 1
 640 384 l 1
 640 512 l 1
 512 512 l 1
 512 640 l 1
 640 640 l 1
 640 768 l 1
 768 768 l 1
 768 640 l 1
 768 512 l 1
 768 384 l 1
 768 256 l 1
 768 128 l 1
 640 128 l 1
384 384 m 1
 384 512 l 1
 512 512 l 1
 512 384 l 1
 384 384 l 1
256 768 m 1
 256 896 l 1
 384 896 l 1
 512 896 l 1
 640 896 l 1
 640 768 l 1
 512 768 l 1
 384 768 l 1
 256 768 l 1
256 0 m 1
 256 128 l 1
 384 128 l 1
 512 128 l 1
 640 128 l 1
 640 0 l 1
 512 0 l 1
 384 0 l 1
 256 0 l 1
128 128 m 1
 128 256 l 1
 128 384 l 1
 128 512 l 1
 128 640 l 1
 128 768 l 1
 256 768 l 1
 256 640 l 1
 256 512 l 1
 256 384 l 1
 384 384 l 1
 384 256 l 1
 256 256 l 1
 256 128 l 1
 128 128 l 1
640 128 m 1
 640 256 l 1
 640 384 l 1
 640 512 l 1
 512 512 l 1
 512 640 l 1
 640 640 l 1
 640 768 l 1
 768 768 l 1
 768 640 l 1
 768 512 l 1
 768 384 l 1
 768 256 l 1
 768 128 l 1
 640 128 l 1
384 384 m 1
 384 512 l 1
 512 512 l 1
 512 384 l 1
 384 384 l 1
256 768 m 1
 256 896 l 1
 384 896 l 1
 512 896 l 1
 640 896 l 1
 640 768 l 1
 512 768 l 1
 384 768 l 1
 256 768 l 1
EndSplineSet
EndChar

StartChar: one
Encoding: 49 49 4
Width: 896
VWidth: 0
Flags: HW
LayerCount: 2
Back
Fore
SplineSet
256 0 m 1
 256 128 l 1
 384 128 l 1
 384 256 l 1
 384 384 l 1
 384 512 l 1
 384 640 l 1
 256 640 l 1
 256 768 l 1
 384 768 l 1
 384 896 l 1
 512 896 l 1
 512 768 l 1
 512 640 l 1
 512 512 l 1
 512 384 l 1
 512 256 l 1
 512 128 l 1
 640 128 l 1
 640 0 l 1
 512 0 l 1
 384 0 l 1
 256 0 l 1
256 0 m 1
 256 128 l 1
 384 128 l 1
 384 256 l 1
 384 384 l 1
 384 512 l 1
 384 640 l 1
 256 640 l 1
 256 768 l 1
 384 768 l 1
 384 896 l 1
 512 896 l 1
 512 768 l 1
 512 640 l 1
 512 512 l 1
 512 384 l 1
 512 256 l 1
 512 128 l 1
 640 128 l 1
 640 0 l 1
 512 0 l 1
 384 0 l 1
 256 0 l 1
EndSplineSet
EndChar

StartChar: two
Encoding: 50 50 5
Width: 896
VWidth: 0
Flags: HW
LayerCount: 2
Back
Fore
SplineSet
128 0 m 1
 128 128 l 1
 128 256 l 1
 256 256 l 1
 256 128 l 1
 384 128 l 1
 512 128 l 1
 640 128 l 1
 768 128 l 1
 768 0 l 1
 640 0 l 1
 512 0 l 1
 384 0 l 1
 256 0 l 1
 128 0 l 1
256 256 m 1
 256 384 l 1
 384 384 l 1
 384 256 l 1
 256 256 l 1
384 384 m 1
 384 512 l 1
 512 512 l 1
 640 512 l 1
 640 384 l 1
 512 384 l 1
 384 384 l 1
640 512 m 1
 640 640 l 1
 640 768 l 1
 768 768 l 1
 768 640 l 1
 768 512 l 1
 640 512 l 1
128 640 m 1
 128 768 l 1
 256 768 l 1
 256 640 l 1
 128 640 l 1
256 768 m 1
 256 896 l 1
 384 896 l 1
 512 896 l 1
 640 896 l 1
 640 768 l 1
 512 768 l 1
 384 768 l 1
 256 768 l 1
128 0 m 1
 128 128 l 1
 128 256 l 1
 256 256 l 1
 256 128 l 1
 384 128 l 1
 512 128 l 1
 640 128 l 1
 768 128 l 1
 768 0 l 1
 640 0 l 1
 512 0 l 1
 384 0 l 1
 256 0 l 1
 128 0 l 1
256 256 m 1
 256 384 l 1
 384 384 l 1
 384 256 l 1
 256 256 l 1
384 384 m 1
 384 512 l 1
 512 512 l 1
 640 512 l 1
 640 384 l 1
 512 384 l 1
 384 384 l 1
640 512 m 1
 640 640 l 1
 640 768 l 1
 768 768 l 1
 768 640 l 1
 768 512 l 1
 640 512 l 1
128 640 m 1
 128 768 l 1
 256 768 l 1
 256 640 l 1
 128 640 l 1
256 768 m 1
 256 896 l 1
 384 896 l 1
 512 896 l 1
 640 896 l 1
 640 768 l 1
 512 768 l 1
 384 768 l 1
 256 768 l 1
EndSplineSet
EndChar

StartChar: three
Encoding: 51 51 6
Width: 896
VWidth: 0
Flags: HW
LayerCount: 2
Back
Fore
SplineSet
256 0 m 1
 256 128 l 1
 384 128 l 1
 512 128 l 1
 640 128 l 1
 640 0 l 1
 512 0 l 1
 384 0 l 1
 256 0 l 1
128 128 m 1
 128 256 l 1
 256 256 l 1
 256 128 l 1
 128 128 l 1
640 128 m 1
 640 256 l 1
 640 384 l 1
 768 384 l 1
 768 256 l 1
 768 128 l 1
 640 128 l 1
384 384 m 1
 384 512 l 1
 512 512 l 1
 512 640 l 1
 640 640 l 1
 640 512 l 1
 640 384 l 1
 512 384 l 1
 384 384 l 1
640 640 m 1
 640 768 l 1
 512 768 l 1
 384 768 l 1
 256 768 l 1
 128 768 l 1
 128 896 l 1
 256 896 l 1
 384 896 l 1
 512 896 l 1
 640 896 l 1
 768 896 l 1
 768 768 l 1
 768 640 l 1
 640 640 l 1
256 0 m 1
 256 128 l 1
 384 128 l 1
 512 128 l 1
 640 128 l 1
 640 0 l 1
 512 0 l 1
 384 0 l 1
 256 0 l 1
128 128 m 1
 128 256 l 1
 256 256 l 1
 256 128 l 1
 128 128 l 1
640 128 m 1
 640 256 l 1
 640 384 l 1
 768 384 l 1
 768 256 l 1
 768 128 l 1
 640 128 l 1
384 384 m 1
 384 512 l 1
 512 512 l 1
 512 640 l 1
 640 640 l 1
 640 512 l 1
 640 384 l 1
 512 384 l 1
 384 384 l 1
640 640 m 1
 640 768 l 1
 512 768 l 1
 384 768 l 1
 256 768 l 1
 128 768 l 1
 128 896 l 1
 256 896 l 1
 384 896 l 1
 512 896 l 1
 640 896 l 1
 768 896 l 1
 768 768 l 1
 768 640 l 1
 640 640 l 1
EndSplineSet
EndChar

StartChar: four
Encoding: 52 52 7
Width: 896
VWidth: 0
Flags: HW
LayerCount: 2
Back
Fore
SplineSet
512 0 m 1
 512 128 l 1
 512 256 l 1
 384 256 l 1
 256 256 l 1
 128 256 l 1
 128 384 l 1
 128 512 l 1
 256 512 l 1
 256 384 l 1
 384 384 l 1
 512 384 l 1
 512 512 l 1
 512 640 l 1
 384 640 l 1
 384 768 l 1
 512 768 l 1
 512 896 l 1
 640 896 l 1
 640 768 l 1
 640 640 l 1
 640 512 l 1
 640 384 l 1
 768 384 l 1
 768 256 l 1
 640 256 l 1
 640 128 l 1
 640 0 l 1
 512 0 l 1
256 512 m 1
 256 640 l 1
 384 640 l 1
 384 512 l 1
 256 512 l 1
512 0 m 1
 512 128 l 1
 512 256 l 1
 384 256 l 1
 256 256 l 1
 128 256 l 1
 128 384 l 1
 128 512 l 1
 256 512 l 1
 256 384 l 1
 384 384 l 1
 512 384 l 1
 512 512 l 1
 512 640 l 1
 384 640 l 1
 384 768 l 1
 512 768 l 1
 512 896 l 1
 640 896 l 1
 640 768 l 1
 640 640 l 1
 640 512 l 1
 640 384 l 1
 768 384 l 1
 768 256 l 1
 640 256 l 1
 640 128 l 1
 640 0 l 1
 512 0 l 1
256 512 m 1
 256 640 l 1
 384 640 l 1
 384 512 l 1
 256 512 l 1
EndSplineSet
EndChar

StartChar: five
Encoding: 53 53 8
Width: 896
VWidth: 0
Flags: HW
LayerCount: 2
Back
Fore
SplineSet
256 0 m 1
 256 128 l 1
 384 128 l 1
 512 128 l 1
 640 128 l 1
 640 0 l 1
 512 0 l 1
 384 0 l 1
 256 0 l 1
128 128 m 1
 128 256 l 1
 256 256 l 1
 256 128 l 1
 128 128 l 1
640 128 m 1
 640 256 l 1
 640 384 l 1
 640 512 l 1
 768 512 l 1
 768 384 l 1
 768 256 l 1
 768 128 l 1
 640 128 l 1
128 512 m 1
 128 640 l 1
 128 768 l 1
 128 896 l 1
 256 896 l 1
 384 896 l 1
 512 896 l 1
 640 896 l 1
 768 896 l 1
 768 768 l 1
 640 768 l 1
 512 768 l 1
 384 768 l 1
 256 768 l 1
 256 640 l 1
 384 640 l 1
 512 640 l 1
 640 640 l 1
 640 512 l 1
 512 512 l 1
 384 512 l 1
 256 512 l 1
 128 512 l 1
256 0 m 1
 256 128 l 1
 384 128 l 1
 512 128 l 1
 640 128 l 1
 640 0 l 1
 512 0 l 1
 384 0 l 1
 256 0 l 1
128 128 m 1
 128 256 l 1
 256 256 l 1
 256 128 l 1
 128 128 l 1
640 128 m 1
 640 256 l 1
 640 384 l 1
 640 512 l 1
 768 512 l 1
 768 384 l 1
 768 256 l 1
 768 128 l 1
 640 128 l 1
128 512 m 1
 128 640 l 1
 128 768 l 1
 128 896 l 1
 256 896 l 1
 384 896 l 1
 512 896 l 1
 640 896 l 1
 768 896 l 1
 768 768 l 1
 640 768 l 1
 512 768 l 1
 384 768 l 1
 256 768 l 1
 256 640 l 1
 384 640 l 1
 512 640 l 1
 640 640 l 1
 640 512 l 1
 512 512 l 1
 384 512 l 1
 256 512 l 1
 128 512 l 1
EndSplineSet
EndChar

StartChar: six
Encoding: 54 54 9
Width: 896
VWidth: 0
Flags: HW
LayerCount: 2
Back
Fore
SplineSet
256 0 m 1
 256 128 l 1
 384 128 l 1
 512 128 l 1
 640 128 l 1
 640 0 l 1
 512 0 l 1
 384 0 l 1
 256 0 l 1
128 128 m 1
 128 256 l 1
 128 384 l 1
 128 512 l 1
 128 640 l 1
 256 640 l 1
 256 512 l 1
 384 512 l 1
 512 512 l 1
 640 512 l 1
 640 384 l 1
 512 384 l 1
 384 384 l 1
 256 384 l 1
 256 256 l 1
 256 128 l 1
 128 128 l 1
640 128 m 1
 640 256 l 1
 640 384 l 1
 768 384 l 1
 768 256 l 1
 768 128 l 1
 640 128 l 1
256 640 m 1
 256 768 l 1
 384 768 l 1
 384 640 l 1
 256 640 l 1
384 768 m 1
 384 896 l 1
 512 896 l 1
 640 896 l 1
 768 896 l 1
 768 768 l 1
 640 768 l 1
 512 768 l 1
 384 768 l 1
256 0 m 1
 256 128 l 1
 384 128 l 1
 512 128 l 1
 640 128 l 1
 640 0 l 1
 512 0 l 1
 384 0 l 1
 256 0 l 1
128 128 m 1
 128 256 l 1
 128 384 l 1
 128 512 l 1
 128 640 l 1
 256 640 l 1
 256 512 l 1
 384 512 l 1
 512 512 l 1
 640 512 l 1
 640 384 l 1
 512 384 l 1
 384 384 l 1
 256 384 l 1
 256 256 l 1
 256 128 l 1
 128 128 l 1
640 128 m 1
 640 256 l 1
 640 384 l 1
 768 384 l 1
 768 256 l 1
 768 128 l 1
 640 128 l 1
256 640 m 1
 256 768 l 1
 384 768 l 1
 384 640 l 1
 256 640 l 1
384 768 m 1
 384 896 l 1
 512 896 l 1
 640 896 l 1
 768 896 l 1
 768 768 l 1
 640 768 l 1
 512 768 l 1
 384 768 l 1
EndSplineSet
EndChar

StartChar: seven
Encoding: 55 55 10
Width: 896
VWidth: 0
Flags: HW
LayerCount: 2
Back
Fore
SplineSet
256 0 m 1
 256 128 l 1
 256 256 l 1
 256 384 l 1
 384 384 l 1
 384 256 l 1
 384 128 l 1
 384 0 l 1
 256 0 l 1
384 384 m 1
 384 512 l 1
 512 512 l 1
 512 384 l 1
 384 384 l 1
512 512 m 1
 512 640 l 1
 640 640 l 1
 640 512 l 1
 512 512 l 1
640 640 m 1
 640 768 l 1
 512 768 l 1
 384 768 l 1
 256 768 l 1
 128 768 l 1
 128 896 l 1
 256 896 l 1
 384 896 l 1
 512 896 l 1
 640 896 l 1
 768 896 l 1
 768 768 l 1
 768 640 l 1
 640 640 l 1
256 0 m 1
 256 128 l 1
 256 256 l 1
 256 384 l 1
 384 384 l 1
 384 256 l 1
 384 128 l 1
 384 0 l 1
 256 0 l 1
384 384 m 1
 384 512 l 1
 512 512 l 1
 512 384 l 1
 384 384 l 1
512 512 m 1
 512 640 l 1
 640 640 l 1
 640 512 l 1
 512 512 l 1
640 640 m 1
 640 768 l 1
 512 768 l 1
 384 768 l 1
 256 768 l 1
 128 768 l 1
 128 896 l 1
 256 896 l 1
 384 896 l 1
 512 896 l 1
 640 896 l 1
 768 896 l 1
 768 768 l 1
 768 640 l 1
 640 640 l 1
EndSplineSet
EndChar

StartChar: eight
Encoding: 56 56 11
Width: 896
VWidth: 0
Flags: HW
LayerCount: 2
Back
Fore
SplineSet
256 0 m 1
 256 128 l 1
 384 128 l 1
 512 128 l 1
 640 128 l 1
 640 0 l 1
 512 0 l 1
 384 0 l 1
 256 0 l 1
128 128 m 1
 128 256 l 1
 128 384 l 1
 256 384 l 1
 256 256 l 1
 256 128 l 1
 128 128 l 1
640 128 m 1
 640 256 l 1
 640 384 l 1
 768 384 l 1
 768 256 l 1
 768 128 l 1
 640 128 l 1
256 384 m 1
 256 512 l 1
 384 512 l 1
 512 512 l 1
 640 512 l 1
 640 384 l 1
 512 384 l 1
 384 384 l 1
 256 384 l 1
128 512 m 1
 128 640 l 1
 128 768 l 1
 256 768 l 1
 256 640 l 1
 256 512 l 1
 128 512 l 1
640 512 m 1
 640 640 l 1
 640 768 l 1
 768 768 l 1
 768 640 l 1
 768 512 l 1
 640 512 l 1
256 768 m 1
 256 896 l 1
 384 896 l 1
 512 896 l 1
 640 896 l 1
 640 768 l 1
 512 768 l 1
 384 768 l 1
 256 768 l 1
256 0 m 1
 256 128 l 1
 384 128 l 1
 512 128 l 1
 640 128 l 1
 640 0 l 1
 512 0 l 1
 384 0 l 1
 256 0 l 1
128 128 m 1
 128 256 l 1
 128 384 l 1
 256 384 l 1
 256 256 l 1
 256 128 l 1
 128 128 l 1
640 128 m 1
 640 256 l 1
 640 384 l 1
 768 384 l 1
 768 256 l 1
 768 128 l 1
 640 128 l 1
256 384 m 1
 256 512 l 1
 384 512 l 1
 512 512 l 1
 640 512 l 1
 640 384 l 1
 512 384 l 1
 384 384 l 1
 256 384 l 1
128 512 m 1
 128 640 l 1
 128 768 l 1
 256 768 l 1
 256 640 l 1
 256 512 l 1
 128 512 l 1
640 512 m 1
 640 640 l 1
 640 768 l 1
 768 768 l 1
 768 640 l 1
 768 512 l 1
 640 512 l 1
256 768 m 1
 256 896 l 1
 384 896 l 1
 512 896 l 1
 640 896 l 1
 640 768 l 1
 512 768 l 1
 384 768 l 1
 256 768 l 1
EndSplineSet
EndChar

StartChar: nine
Encoding: 57 57 12
Width: 896
VWidth: 0
Flags: HW
LayerCount: 2
Back
Fore
SplineSet
128 0 m 1
 128 128 l 1
 256 128 l 1
 384 128 l 1
 512 128 l 1
 512 0 l 1
 384 0 l 1
 256 0 l 1
 128 0 l 1
512 128 m 1
 512 256 l 1
 640 256 l 1
 640 128 l 1
 512 128 l 1
640 256 m 1
 640 384 l 1
 512 384 l 1
 384 384 l 1
 256 384 l 1
 256 512 l 1
 384 512 l 1
 512 512 l 1
 640 512 l 1
 640 640 l 1
 640 768 l 1
 768 768 l 1
 768 640 l 1
 768 512 l 1
 768 384 l 1
 768 256 l 1
 640 256 l 1
128 512 m 1
 128 640 l 1
 128 768 l 1
 256 768 l 1
 256 640 l 1
 256 512 l 1
 128 512 l 1
256 768 m 1
 256 896 l 1
 384 896 l 1
 512 896 l 1
 640 896 l 1
 640 768 l 1
 512 768 l 1
 384 768 l 1
 256 768 l 1
128 0 m 1
 128 128 l 1
 256 128 l 1
 384 128 l 1
 512 128 l 1
 512 0 l 1
 384 0 l 1
 256 0 l 1
 128 0 l 1
512 128 m 1
 512 256 l 1
 640 256 l 1
 640 128 l 1
 512 128 l 1
640 256 m 1
 640 384 l 1
 512 384 l 1
 384 384 l 1
 256 384 l 1
 256 512 l 1
 384 512 l 1
 512 512 l 1
 640 512 l 1
 640 640 l 1
 640 768 l 1
 768 768 l 1
 768 640 l 1
 768 512 l 1
 768 384 l 1
 768 256 l 1
 640 256 l 1
128 512 m 1
 128 640 l 1
 128 768 l 1
 256 768 l 1
 256 640 l 1
 256 512 l 1
 128 512 l 1
256 768 m 1
 256 896 l 1
 384 896 l 1
 512 896 l 1
 640 896 l 1
 640 768 l 1
 512 768 l 1
 384 768 l 1
 256 768 l 1
EndSplineSet
EndChar

StartChar: A
Encoding: 65 65 13
Width: 896
VWidth: 0
Flags: HW
LayerCount: 2
Back
Fore
SplineSet
128 0 m 1
 128 128 l 1
 128 256 l 1
 128 384 l 1
 128 512 l 1
 128 640 l 1
 256 640 l 1
 256 512 l 1
 256 384 l 1
 384 384 l 1
 512 384 l 1
 640 384 l 1
 640 512 l 1
 640 640 l 1
 768 640 l 1
 768 512 l 1
 768 384 l 1
 768 256 l 1
 768 128 l 1
 768 0 l 1
 640 0 l 1
 640 128 l 1
 640 256 l 1
 512 256 l 1
 384 256 l 1
 256 256 l 1
 256 128 l 1
 256 0 l 1
 128 0 l 1
256 640 m 1
 256 768 l 1
 384 768 l 1
 384 640 l 1
 256 640 l 1
512 640 m 1
 512 768 l 1
 640 768 l 1
 640 640 l 1
 512 640 l 1
384 768 m 1
 384 896 l 1
 512 896 l 1
 512 768 l 1
 384 768 l 1
128 0 m 1
 128 128 l 1
 128 256 l 1
 128 384 l 1
 128 512 l 1
 128 640 l 1
 256 640 l 1
 256 512 l 1
 256 384 l 1
 384 384 l 1
 512 384 l 1
 640 384 l 1
 640 512 l 1
 640 640 l 1
 768 640 l 1
 768 512 l 1
 768 384 l 1
 768 256 l 1
 768 128 l 1
 768 0 l 1
 640 0 l 1
 640 128 l 1
 640 256 l 1
 512 256 l 1
 384 256 l 1
 256 256 l 1
 256 128 l 1
 256 0 l 1
 128 0 l 1
256 640 m 1
 256 768 l 1
 384 768 l 1
 384 640 l 1
 256 640 l 1
512 640 m 1
 512 768 l 1
 640 768 l 1
 640 640 l 1
 512 640 l 1
384 768 m 1
 384 896 l 1
 512 896 l 1
 512 768 l 1
 384 768 l 1
EndSplineSet
EndChar

StartChar: B
Encoding: 66 66 14
Width: 896
VWidth: 0
Flags: HW
LayerCount: 2
Back
Fore
SplineSet
128 0 m 1
 128 128 l 1
 128 256 l 1
 128 384 l 1
 128 512 l 1
 128 640 l 1
 128 768 l 1
 128 896 l 1
 256 896 l 1
 384 896 l 1
 512 896 l 1
 640 896 l 1
 640 768 l 1
 512 768 l 1
 384 768 l 1
 256 768 l 1
 256 640 l 1
 256 512 l 1
 384 512 l 1
 512 512 l 1
 640 512 l 1
 640 384 l 1
 512 384 l 1
 384 384 l 1
 256 384 l 1
 256 256 l 1
 256 128 l 1
 384 128 l 1
 512 128 l 1
 640 128 l 1
 640 0 l 1
 512 0 l 1
 384 0 l 1
 256 0 l 1
 128 0 l 1
640 128 m 1
 640 256 l 1
 640 384 l 1
 768 384 l 1
 768 256 l 1
 768 128 l 1
 640 128 l 1
640 512 m 1
 640 640 l 1
 640 768 l 1
 768 768 l 1
 768 640 l 1
 768 512 l 1
 640 512 l 1
128 0 m 1
 128 128 l 1
 128 256 l 1
 128 384 l 1
 128 512 l 1
 128 640 l 1
 128 768 l 1
 128 896 l 1
 256 896 l 1
 384 896 l 1
 512 896 l 1
 640 896 l 1
 640 768 l 1
 512 768 l 1
 384 768 l 1
 256 768 l 1
 256 640 l 1
 256 512 l 1
 384 512 l 1
 512 512 l 1
 640 512 l 1
 640 384 l 1
 512 384 l 1
 384 384 l 1
 256 384 l 1
 256 256 l 1
 256 128 l 1
 384 128 l 1
 512 128 l 1
 640 128 l 1
 640 0 l 1
 512 0 l 1
 384 0 l 1
 256 0 l 1
 128 0 l 1
640 128 m 1
 640 256 l 1
 640 384 l 1
 768 384 l 1
 768 256 l 1
 768 128 l 1
 640 128 l 1
640 512 m 1
 640 640 l 1
 640 768 l 1
 768 768 l 1
 768 640 l 1
 768 512 l 1
 640 512 l 1
EndSplineSet
EndChar

StartChar: C
Encoding: 67 67 15
Width: 896
VWidth: 0
Flags: HW
LayerCount: 2
Back
Fore
SplineSet
256 0 m 1
 256 128 l 1
 384 128 l 1
 512 128 l 1
 640 128 l 1
 640 0 l 1
 512 0 l 1
 384 0 l 1
 256 0 l 1
128 128 m 1
 128 256 l 1
 128 384 l 1
 128 512 l 1
 128 640 l 1
 128 768 l 1
 256 768 l 1
 256 640 l 1
 256 512 l 1
 256 384 l 1
 256 256 l 1
 256 128 l 1
 128 128 l 1
640 128 m 1
 640 256 l 1
 768 256 l 1
 768 128 l 1
 640 128 l 1
640 640 m 1
 640 768 l 1
 768 768 l 1
 768 640 l 1
 640 640 l 1
256 768 m 1
 256 896 l 1
 384 896 l 1
 512 896 l 1
 640 896 l 1
 640 768 l 1
 512 768 l 1
 384 768 l 1
 256 768 l 1
256 0 m 1
 256 128 l 1
 384 128 l 1
 512 128 l 1
 640 128 l 1
 640 0 l 1
 512 0 l 1
 384 0 l 1
 256 0 l 1
128 128 m 1
 128 256 l 1
 128 384 l 1
 128 512 l 1
 128 640 l 1
 128 768 l 1
 256 768 l 1
 256 640 l 1
 256 512 l 1
 256 384 l 1
 256 256 l 1
 256 128 l 1
 128 128 l 1
640 128 m 1
 640 256 l 1
 768 256 l 1
 768 128 l 1
 640 128 l 1
640 640 m 1
 640 768 l 1
 768 768 l 1
 768 640 l 1
 640 640 l 1
256 768 m 1
 256 896 l 1
 384 896 l 1
 512 896 l 1
 640 896 l 1
 640 768 l 1
 512 768 l 1
 384 768 l 1
 256 768 l 1
EndSplineSet
EndChar

StartChar: D
Encoding: 68 68 16
Width: 896
VWidth: 0
Flags: HW
LayerCount: 2
Back
Fore
SplineSet
128 0 m 1
 128 128 l 1
 128 256 l 1
 128 384 l 1
 128 512 l 1
 128 640 l 1
 128 768 l 1
 128 896 l 1
 256 896 l 1
 384 896 l 1
 512 896 l 1
 640 896 l 1
 640 768 l 1
 512 768 l 1
 384 768 l 1
 256 768 l 1
 256 640 l 1
 256 512 l 1
 256 384 l 1
 256 256 l 1
 256 128 l 1
 384 128 l 1
 512 128 l 1
 640 128 l 1
 640 0 l 1
 512 0 l 1
 384 0 l 1
 256 0 l 1
 128 0 l 1
640 128 m 1
 640 256 l 1
 640 384 l 1
 640 512 l 1
 640 640 l 1
 640 768 l 1
 768 768 l 1
 768 640 l 1
 768 512 l 1
 768 384 l 1
 768 256 l 1
 768 128 l 1
 640 128 l 1
128 0 m 1
 128 128 l 1
 128 256 l 1
 128 384 l 1
 128 512 l 1
 128 640 l 1
 128 768 l 1
 128 896 l 1
 256 896 l 1
 384 896 l 1
 512 896 l 1
 640 896 l 1
 640 768 l 1
 512 768 l 1
 384 768 l 1
 256 768 l 1
 256 640 l 1
 256 512 l 1
 256 384 l 1
 256 256 l 1
 256 128 l 1
 384 128 l 1
 512 128 l 1
 640 128 l 1
 640 0 l 1
 512 0 l 1
 384 0 l 1
 256 0 l 1
 128 0 l 1
640 128 m 1
 640 256 l 1
 640 384 l 1
 640 512 l 1
 640 640 l 1
 640 768 l 1
 768 768 l 1
 768 640 l 1
 768 512 l 1
 768 384 l 1
 768 256 l 1
 768 128 l 1
 640 128 l 1
EndSplineSet
EndChar

StartChar: E
Encoding: 69 69 17
Width: 896
VWidth: 0
Flags: HW
LayerCount: 2
Back
Fore
SplineSet
128 0 m 1
 128 128 l 1
 128 256 l 1
 128 384 l 1
 128 512 l 1
 128 640 l 1
 128 768 l 1
 128 896 l 1
 256 896 l 1
 384 896 l 1
 512 896 l 1
 640 896 l 1
 768 896 l 1
 768 768 l 1
 640 768 l 1
 512 768 l 1
 384 768 l 1
 256 768 l 1
 256 640 l 1
 256 512 l 1
 384 512 l 1
 512 512 l 1
 640 512 l 1
 640 384 l 1
 512 384 l 1
 384 384 l 1
 256 384 l 1
 256 256 l 1
 256 128 l 1
 384 128 l 1
 512 128 l 1
 640 128 l 1
 768 128 l 1
 768 0 l 1
 640 0 l 1
 512 0 l 1
 384 0 l 1
 256 0 l 1
 128 0 l 1
128 0 m 1
 128 128 l 1
 128 256 l 1
 128 384 l 1
 128 512 l 1
 128 640 l 1
 128 768 l 1
 128 896 l 1
 256 896 l 1
 384 896 l 1
 512 896 l 1
 640 896 l 1
 768 896 l 1
 768 768 l 1
 640 768 l 1
 512 768 l 1
 384 768 l 1
 256 768 l 1
 256 640 l 1
 256 512 l 1
 384 512 l 1
 512 512 l 1
 640 512 l 1
 640 384 l 1
 512 384 l 1
 384 384 l 1
 256 384 l 1
 256 256 l 1
 256 128 l 1
 384 128 l 1
 512 128 l 1
 640 128 l 1
 768 128 l 1
 768 0 l 1
 640 0 l 1
 512 0 l 1
 384 0 l 1
 256 0 l 1
 128 0 l 1
EndSplineSet
EndChar

StartChar: F
Encoding: 70 70 18
Width: 896
VWidth: 0
Flags: HW
LayerCount: 2
Back
Fore
SplineSet
128 0 m 1
 128 128 l 1
 128 256 l 1
 128 384 l 1
 128 512 l 1
 128 640 l 1
 128 768 l 1
 128 896 l 1
 256 896 l 1
 384 896 l 1
 512 896 l 1
 640 896 l 1
 768 896 l 1
 768 768 l 1
 640 768 l 1
 512 768 l 1
 384 768 l 1
 256 768 l 1
 256 640 l 1
 256 512 l 1
 384 512 l 1
 512 512 l 1
 640 512 l 1
 640 384 l 1
 512 384 l 1
 384 384 l 1
 256 384 l 1
 256 256 l 1
 256 128 l 1
 256 0 l 1
 128 0 l 1
128 0 m 1
 128 128 l 1
 128 256 l 1
 128 384 l 1
 128 512 l 1
 128 640 l 1
 128 768 l 1
 128 896 l 1
 256 896 l 1
 384 896 l 1
 512 896 l 1
 640 896 l 1
 768 896 l 1
 768 768 l 1
 640 768 l 1
 512 768 l 1
 384 768 l 1
 256 768 l 1
 256 640 l 1
 256 512 l 1
 384 512 l 1
 512 512 l 1
 640 512 l 1
 640 384 l 1
 512 384 l 1
 384 384 l 1
 256 384 l 1
 256 256 l 1
 256 128 l 1
 256 0 l 1
 128 0 l 1
EndSplineSet
EndChar

StartChar: G
Encoding: 71 71 19
Width: 896
VWidth: 0
Flags: HW
LayerCount: 2
Back
Fore
SplineSet
256 0 m 1
 256 128 l 1
 384 128 l 1
 512 128 l 1
 640 128 l 1
 640 256 l 1
 512 256 l 1
 512 384 l 1
 640 384 l 1
 768 384 l 1
 768 256 l 1
 768 128 l 1
 768 0 l 1
 640 0 l 1
 512 0 l 1
 384 0 l 1
 256 0 l 1
128 128 m 1
 128 256 l 1
 128 384 l 1
 128 512 l 1
 128 640 l 1
 128 768 l 1
 256 768 l 1
 256 640 l 1
 256 512 l 1
 256 384 l 1
 256 256 l 1
 256 128 l 1
 128 128 l 1
640 640 m 1
 640 768 l 1
 768 768 l 1
 768 640 l 1
 640 640 l 1
256 768 m 1
 256 896 l 1
 384 896 l 1
 512 896 l 1
 640 896 l 1
 640 768 l 1
 512 768 l 1
 384 768 l 1
 256 768 l 1
256 0 m 1
 256 128 l 1
 384 128 l 1
 512 128 l 1
 640 128 l 1
 640 256 l 1
 512 256 l 1
 512 384 l 1
 640 384 l 1
 768 384 l 1
 768 256 l 1
 768 128 l 1
 768 0 l 1
 640 0 l 1
 512 0 l 1
 384 0 l 1
 256 0 l 1
128 128 m 1
 128 256 l 1
 128 384 l 1
 128 512 l 1
 128 640 l 1
 128 768 l 1
 256 768 l 1
 256 640 l 1
 256 512 l 1
 256 384 l 1
 256 256 l 1
 256 128 l 1
 128 128 l 1
640 640 m 1
 640 768 l 1
 768 768 l 1
 768 640 l 1
 640 640 l 1
256 768 m 1
 256 896 l 1
 384 896 l 1
 512 896 l 1
 640 896 l 1
 640 768 l 1
 512 768 l 1
 384 768 l 1
 256 768 l 1
EndSplineSet
EndChar

StartChar: H
Encoding: 72 72 20
Width: 896
VWidth: 0
Flags: HW
LayerCount: 2
Back
Fore
SplineSet
128 0 m 1
 128 128 l 1
 128 256 l 1
 128 384 l 1
 128 512 l 1
 128 640 l 1
 128 768 l 1
 128 896 l 1
 256 896 l 1
 256 768 l 1
 256 640 l 1
 256 512 l 1
 384 512 l 1
 512 512 l 1
 640 512 l 1
 640 640 l 1
 640 768 l 1
 640 896 l 1
 768 896 l 1
 768 768 l 1
 768 640 l 1
 768 512 l 1
 768 384 l 1
 768 256 l 1
 768 128 l 1
 768 0 l 1
 640 0 l 1
 640 128 l 1
 640 256 l 1
 640 384 l 1
 512 384 l 1
 384 384 l 1
 256 384 l 1
 256 256 l 1
 256 128 l 1
 256 0 l 1
 128 0 l 1
128 0 m 1
 128 128 l 1
 128 256 l 1
 128 384 l 1
 128 512 l 1
 128 640 l 1
 128 768 l 1
 128 896 l 1
 256 896 l 1
 256 768 l 1
 256 640 l 1
 256 512 l 1
 384 512 l 1
 512 512 l 1
 640 512 l 1
 640 640 l 1
 640 768 l 1
 640 896 l 1
 768 896 l 1
 768 768 l 1
 768 640 l 1
 768 512 l 1
 768 384 l 1
 768 256 l 1
 768 128 l 1
 768 0 l 1
 640 0 l 1
 640 128 l 1
 640 256 l 1
 640 384 l 1
 512 384 l 1
 384 384 l 1
 256 384 l 1
 256 256 l 1
 256 128 l 1
 256 0 l 1
 128 0 l 1
EndSplineSet
EndChar

StartChar: I
Encoding: 73 73 21
Width: 896
VWidth: 0
Flags: HW
LayerCount: 2
Back
Fore
SplineSet
256 0 m 1
 256 128 l 1
 384 128 l 1
 384 256 l 1
 384 384 l 1
 384 512 l 1
 384 640 l 1
 384 768 l 1
 256 768 l 1
 256 896 l 1
 384 896 l 1
 512 896 l 1
 640 896 l 1
 640 768 l 1
 512 768 l 1
 512 640 l 1
 512 512 l 1
 512 384 l 1
 512 256 l 1
 512 128 l 1
 640 128 l 1
 640 0 l 1
 512 0 l 1
 384 0 l 1
 256 0 l 1
256 0 m 1
 256 128 l 1
 384 128 l 1
 384 256 l 1
 384 384 l 1
 384 512 l 1
 384 640 l 1
 384 768 l 1
 256 768 l 1
 256 896 l 1
 384 896 l 1
 512 896 l 1
 640 896 l 1
 640 768 l 1
 512 768 l 1
 512 640 l 1
 512 512 l 1
 512 384 l 1
 512 256 l 1
 512 128 l 1
 640 128 l 1
 640 0 l 1
 512 0 l 1
 384 0 l 1
 256 0 l 1
EndSplineSet
EndChar

StartChar: J
Encoding: 74 74 22
Width: 896
VWidth: 0
Flags: HW
LayerCount: 2
Back
Fore
SplineSet
256 0 m 1
 256 128 l 1
 384 128 l 1
 512 128 l 1
 640 128 l 1
 640 0 l 1
 512 0 l 1
 384 0 l 1
 256 0 l 1
128 128 m 1
 128 256 l 1
 256 256 l 1
 256 128 l 1
 128 128 l 1
640 128 m 1
 640 256 l 1
 640 384 l 1
 640 512 l 1
 640 640 l 1
 640 768 l 1
 640 896 l 1
 768 896 l 1
 768 768 l 1
 768 640 l 1
 768 512 l 1
 768 384 l 1
 768 256 l 1
 768 128 l 1
 640 128 l 1
256 0 m 1
 256 128 l 1
 384 128 l 1
 512 128 l 1
 640 128 l 1
 640 0 l 1
 512 0 l 1
 384 0 l 1
 256 0 l 1
128 128 m 1
 128 256 l 1
 256 256 l 1
 256 128 l 1
 128 128 l 1
640 128 m 1
 640 256 l 1
 640 384 l 1
 640 512 l 1
 640 640 l 1
 640 768 l 1
 640 896 l 1
 768 896 l 1
 768 768 l 1
 768 640 l 1
 768 512 l 1
 768 384 l 1
 768 256 l 1
 768 128 l 1
 640 128 l 1
EndSplineSet
EndChar

StartChar: K
Encoding: 75 75 23
Width: 896
VWidth: 0
Flags: HW
LayerCount: 2
Back
Fore
SplineSet
128 0 m 1
 128 128 l 1
 128 256 l 1
 128 384 l 1
 128 512 l 1
 128 640 l 1
 128 768 l 1
 128 896 l 1
 256 896 l 1
 256 768 l 1
 256 640 l 1
 256 512 l 1
 384 512 l 1
 384 384 l 1
 256 384 l 1
 256 256 l 1
 256 128 l 1
 256 0 l 1
 128 0 l 1
640 0 m 1
 640 128 l 1
 768 128 l 1
 768 0 l 1
 640 0 l 1
512 128 m 1
 512 256 l 1
 640 256 l 1
 640 128 l 1
 512 128 l 1
384 256 m 1
 384 384 l 1
 512 384 l 1
 512 256 l 1
 384 256 l 1
384 512 m 1
 384 640 l 1
 512 640 l 1
 512 512 l 1
 384 512 l 1
512 640 m 1
 512 768 l 1
 640 768 l 1
 640 640 l 1
 512 640 l 1
640 768 m 1
 640 896 l 1
 768 896 l 1
 768 768 l 1
 640 768 l 1
128 0 m 1
 128 128 l 1
 128 256 l 1
 128 384 l 1
 128 512 l 1
 128 640 l 1
 128 768 l 1
 128 896 l 1
 256 896 l 1
 256 768 l 1
 256 640 l 1
 256 512 l 1
 384 512 l 1
 384 384 l 1
 256 384 l 1
 256 256 l 1
 256 128 l 1
 256 0 l 1
 128 0 l 1
640 0 m 1
 640 128 l 1
 768 128 l 1
 768 0 l 1
 640 0 l 1
512 128 m 1
 512 256 l 1
 640 256 l 1
 640 128 l 1
 512 128 l 1
384 256 m 1
 384 384 l 1
 512 384 l 1
 512 256 l 1
 384 256 l 1
384 512 m 1
 384 640 l 1
 512 640 l 1
 512 512 l 1
 384 512 l 1
512 640 m 1
 512 768 l 1
 640 768 l 1
 640 640 l 1
 512 640 l 1
640 768 m 1
 640 896 l 1
 768 896 l 1
 768 768 l 1
 640 768 l 1
EndSplineSet
EndChar

StartChar: L
Encoding: 76 76 24
Width: 896
VWidth: 0
Flags: HW
LayerCount: 2
Back
Fore
SplineSet
128 0 m 1
 128 128 l 1
 128 256 l 1
 128 384 l 1
 128 512 l 1
 128 640 l 1
 128 768 l 1
 128 896 l 1
 256 896 l 1
 256 768 l 1
 256 640 l 1
 256 512 l 1
 256 384 l 1
 256 256 l 1
 256 128 l 1
 384 128 l 1
 512 128 l 1
 640 128 l 1
 768 128 l 1
 768 0 l 1
 640 0 l 1
 512 0 l 1
 384 0 l 1
 256 0 l 1
 128 0 l 1
128 0 m 1
 128 128 l 1
 128 256 l 1
 128 384 l 1
 128 512 l 1
 128 640 l 1
 128 768 l 1
 128 896 l 1
 256 896 l 1
 256 768 l 1
 256 640 l 1
 256 512 l 1
 256 384 l 1
 256 256 l 1
 256 128 l 1
 384 128 l 1
 512 128 l 1
 640 128 l 1
 768 128 l 1
 768 0 l 1
 640 0 l 1
 512 0 l 1
 384 0 l 1
 256 0 l 1
 128 0 l 1
EndSplineSet
EndChar

StartChar: M
Encoding: 77 77 25
Width: 896
VWidth: 0
Flags: HW
LayerCount: 2
Back
Fore
SplineSet
128 0 m 1
 128 128 l 1
 128 256 l 1
 128 384 l 1
 128 512 l 1
 128 640 l 1
 128 768 l 1
 128 896 l 1
 256 896 l 1
 256 768 l 1
 384 768 l 1
 384 640 l 1
 256 640 l 1
 256 512 l 1
 256 384 l 1
 256 256 l 1
 256 128 l 1
 256 0 l 1
 128 0 l 1
640 0 m 1
 640 128 l 1
 640 256 l 1
 640 384 l 1
 640 512 l 1
 640 640 l 1
 512 640 l 1
 512 768 l 1
 640 768 l 1
 640 896 l 1
 768 896 l 1
 768 768 l 1
 768 640 l 1
 768 512 l 1
 768 384 l 1
 768 256 l 1
 768 128 l 1
 768 0 l 1
 640 0 l 1
384 384 m 1
 384 512 l 1
 384 640 l 1
 512 640 l 1
 512 512 l 1
 512 384 l 1
 384 384 l 1
128 0 m 1
 128 128 l 1
 128 256 l 1
 128 384 l 1
 128 512 l 1
 128 640 l 1
 128 768 l 1
 128 896 l 1
 256 896 l 1
 256 768 l 1
 384 768 l 1
 384 640 l 1
 256 640 l 1
 256 512 l 1
 256 384 l 1
 256 256 l 1
 256 128 l 1
 256 0 l 1
 128 0 l 1
640 0 m 1
 640 128 l 1
 640 256 l 1
 640 384 l 1
 640 512 l 1
 640 640 l 1
 512 640 l 1
 512 768 l 1
 640 768 l 1
 640 896 l 1
 768 896 l 1
 768 768 l 1
 768 640 l 1
 768 512 l 1
 768 384 l 1
 768 256 l 1
 768 128 l 1
 768 0 l 1
 640 0 l 1
384 384 m 1
 384 512 l 1
 384 640 l 1
 512 640 l 1
 512 512 l 1
 512 384 l 1
 384 384 l 1
EndSplineSet
EndChar

StartChar: N
Encoding: 78 78 26
Width: 896
VWidth: 0
Flags: HW
LayerCount: 2
Back
Fore
SplineSet
128 0 m 1
 128 128 l 1
 128 256 l 1
 128 384 l 1
 128 512 l 1
 128 640 l 1
 128 768 l 1
 128 896 l 1
 256 896 l 1
 256 768 l 1
 256 640 l 1
 384 640 l 1
 384 512 l 1
 256 512 l 1
 256 384 l 1
 256 256 l 1
 256 128 l 1
 256 0 l 1
 128 0 l 1
640 0 m 1
 640 128 l 1
 640 256 l 1
 512 256 l 1
 512 384 l 1
 640 384 l 1
 640 512 l 1
 640 640 l 1
 640 768 l 1
 640 896 l 1
 768 896 l 1
 768 768 l 1
 768 640 l 1
 768 512 l 1
 768 384 l 1
 768 256 l 1
 768 128 l 1
 768 0 l 1
 640 0 l 1
384 384 m 1
 384 512 l 1
 512 512 l 1
 512 384 l 1
 384 384 l 1
128 0 m 1
 128 128 l 1
 128 256 l 1
 128 384 l 1
 128 512 l 1
 128 640 l 1
 128 768 l 1
 128 896 l 1
 256 896 l 1
 256 768 l 1
 256 640 l 1
 384 640 l 1
 384 512 l 1
 256 512 l 1
 256 384 l 1
 256 256 l 1
 256 128 l 1
 256 0 l 1
 128 0 l 1
640 0 m 1
 640 128 l 1
 640 256 l 1
 512 256 l 1
 512 384 l 1
 640 384 l 1
 640 512 l 1
 640 640 l 1
 640 768 l 1
 640 896 l 1
 768 896 l 1
 768 768 l 1
 768 640 l 1
 768 512 l 1
 768 384 l 1
 768 256 l 1
 768 128 l 1
 768 0 l 1
 640 0 l 1
384 384 m 1
 384 512 l 1
 512 512 l 1
 512 384 l 1
 384 384 l 1
EndSplineSet
EndChar

StartChar: O
Encoding: 79 79 27
Width: 896
VWidth: 0
Flags: HW
LayerCount: 2
Back
Fore
SplineSet
256 0 m 1
 256 128 l 1
 384 128 l 1
 512 128 l 1
 640 128 l 1
 640 0 l 1
 512 0 l 1
 384 0 l 1
 256 0 l 1
128 128 m 1
 128 256 l 1
 128 384 l 1
 128 512 l 1
 128 640 l 1
 128 768 l 1
 256 768 l 1
 256 640 l 1
 256 512 l 1
 256 384 l 1
 256 256 l 1
 256 128 l 1
 128 128 l 1
640 128 m 1
 640 256 l 1
 640 384 l 1
 640 512 l 1
 640 640 l 1
 640 768 l 1
 768 768 l 1
 768 640 l 1
 768 512 l 1
 768 384 l 1
 768 256 l 1
 768 128 l 1
 640 128 l 1
256 768 m 1
 256 896 l 1
 384 896 l 1
 512 896 l 1
 640 896 l 1
 640 768 l 1
 512 768 l 1
 384 768 l 1
 256 768 l 1
256 0 m 1
 256 128 l 1
 384 128 l 1
 512 128 l 1
 640 128 l 1
 640 0 l 1
 512 0 l 1
 384 0 l 1
 256 0 l 1
128 128 m 1
 128 256 l 1
 128 384 l 1
 128 512 l 1
 128 640 l 1
 128 768 l 1
 256 768 l 1
 256 640 l 1
 256 512 l 1
 256 384 l 1
 256 256 l 1
 256 128 l 1
 128 128 l 1
640 128 m 1
 640 256 l 1
 640 384 l 1
 640 512 l 1
 640 640 l 1
 640 768 l 1
 768 768 l 1
 768 640 l 1
 768 512 l 1
 768 384 l 1
 768 256 l 1
 768 128 l 1
 640 128 l 1
256 768 m 1
 256 896 l 1
 384 896 l 1
 512 896 l 1
 640 896 l 1
 640 768 l 1
 512 768 l 1
 384 768 l 1
 256 768 l 1
EndSplineSet
EndChar

StartChar: P
Encoding: 80 80 28
Width: 896
VWidth: 0
Flags: HW
LayerCount: 2
Back
Fore
SplineSet
128 0 m 1
 128 128 l 1
 128 256 l 1
 128 384 l 1
 128 512 l 1
 128 640 l 1
 128 768 l 1
 128 896 l 1
 256 896 l 1
 384 896 l 1
 512 896 l 1
 640 896 l 1
 640 768 l 1
 512 768 l 1
 384 768 l 1
 256 768 l 1
 256 640 l 1
 256 512 l 1
 384 512 l 1
 512 512 l 1
 640 512 l 1
 640 384 l 1
 512 384 l 1
 384 384 l 1
 256 384 l 1
 256 256 l 1
 256 128 l 1
 256 0 l 1
 128 0 l 1
640 512 m 1
 640 640 l 1
 640 768 l 1
 768 768 l 1
 768 640 l 1
 768 512 l 1
 640 512 l 1
128 0 m 1
 128 128 l 1
 128 256 l 1
 128 384 l 1
 128 512 l 1
 128 640 l 1
 128 768 l 1
 128 896 l 1
 256 896 l 1
 384 896 l 1
 512 896 l 1
 640 896 l 1
 640 768 l 1
 512 768 l 1
 384 768 l 1
 256 768 l 1
 256 640 l 1
 256 512 l 1
 384 512 l 1
 512 512 l 1
 640 512 l 1
 640 384 l 1
 512 384 l 1
 384 384 l 1
 256 384 l 1
 256 256 l 1
 256 128 l 1
 256 0 l 1
 128 0 l 1
640 512 m 1
 640 640 l 1
 640 768 l 1
 768 768 l 1
 768 640 l 1
 768 512 l 1
 640 512 l 1
EndSplineSet
EndChar

StartChar: Q
Encoding: 81 81 29
Width: 896
VWidth: 0
Flags: HW
LayerCount: 2
Back
Fore
SplineSet
256 0 m 1
 256 128 l 1
 384 128 l 1
 512 128 l 1
 512 0 l 1
 384 0 l 1
 256 0 l 1
640 0 m 1
 640 128 l 1
 768 128 l 1
 768 0 l 1
 640 0 l 1
128 128 m 1
 128 256 l 1
 128 384 l 1
 128 512 l 1
 128 640 l 1
 128 768 l 1
 256 768 l 1
 256 640 l 1
 256 512 l 1
 256 384 l 1
 256 256 l 1
 256 128 l 1
 128 128 l 1
512 128 m 1
 512 256 l 1
 640 256 l 1
 640 128 l 1
 512 128 l 1
384 256 m 1
 384 384 l 1
 512 384 l 1
 512 256 l 1
 384 256 l 1
640 256 m 1
 640 384 l 1
 640 512 l 1
 640 640 l 1
 640 768 l 1
 768 768 l 1
 768 640 l 1
 768 512 l 1
 768 384 l 1
 768 256 l 1
 640 256 l 1
256 768 m 1
 256 896 l 1
 384 896 l 1
 512 896 l 1
 640 896 l 1
 640 768 l 1
 512 768 l 1
 384 768 l 1
 256 768 l 1
256 0 m 1
 256 128 l 1
 384 128 l 1
 512 128 l 1
 512 0 l 1
 384 0 l 1
 256 0 l 1
640 0 m 1
 640 128 l 1
 768 128 l 1
 768 0 l 1
 640 0 l 1
128 128 m 1
 128 256 l 1
 128 384 l 1
 128 512 l 1
 128 640 l 1
 128 768 l 1
 256 768 l 1
 256 640 l 1
 256 512 l 1
 256 384 l 1
 256 256 l 1
 256 128 l 1
 128 128 l 1
512 128 m 1
 512 256 l 1
 640 256 l 1
 640 128 l 1
 512 128 l 1
384 256 m 1
 384 384 l 1
 512 384 l 1
 512 256 l 1
 384 256 l 1
640 256 m 1
 640 384 l 1
 640 512 l 1
 640 640 l 1
 640 768 l 1
 768 768 l 1
 768 640 l 1
 768 512 l 1
 768 384 l 1
 768 256 l 1
 640 256 l 1
256 768 m 1
 256 896 l 1
 384 896 l 1
 512 896 l 1
 640 896 l 1
 640 768 l 1
 512 768 l 1
 384 768 l 1
 256 768 l 1
EndSplineSet
EndChar

StartChar: R
Encoding: 82 82 30
Width: 896
VWidth: 0
Flags: HW
LayerCount: 2
Back
Fore
SplineSet
128 0 m 1
 128 128 l 1
 128 256 l 1
 128 384 l 1
 128 512 l 1
 128 640 l 1
 128 768 l 1
 128 896 l 1
 256 896 l 1
 384 896 l 1
 512 896 l 1
 640 896 l 1
 640 768 l 1
 512 768 l 1
 384 768 l 1
 256 768 l 1
 256 640 l 1
 256 512 l 1
 384 512 l 1
 512 512 l 1
 640 512 l 1
 640 384 l 1
 512 384 l 1
 512 256 l 1
 384 256 l 1
 384 384 l 1
 256 384 l 1
 256 256 l 1
 256 128 l 1
 256 0 l 1
 128 0 l 1
640 0 m 1
 640 128 l 1
 768 128 l 1
 768 0 l 1
 640 0 l 1
512 128 m 1
 512 256 l 1
 640 256 l 1
 640 128 l 1
 512 128 l 1
640 512 m 1
 640 640 l 1
 640 768 l 1
 768 768 l 1
 768 640 l 1
 768 512 l 1
 640 512 l 1
128 0 m 1
 128 128 l 1
 128 256 l 1
 128 384 l 1
 128 512 l 1
 128 640 l 1
 128 768 l 1
 128 896 l 1
 256 896 l 1
 384 896 l 1
 512 896 l 1
 640 896 l 1
 640 768 l 1
 512 768 l 1
 384 768 l 1
 256 768 l 1
 256 640 l 1
 256 512 l 1
 384 512 l 1
 512 512 l 1
 640 512 l 1
 640 384 l 1
 512 384 l 1
 512 256 l 1
 384 256 l 1
 384 384 l 1
 256 384 l 1
 256 256 l 1
 256 128 l 1
 256 0 l 1
 128 0 l 1
640 0 m 1
 640 128 l 1
 768 128 l 1
 768 0 l 1
 640 0 l 1
512 128 m 1
 512 256 l 1
 640 256 l 1
 640 128 l 1
 512 128 l 1
640 512 m 1
 640 640 l 1
 640 768 l 1
 768 768 l 1
 768 640 l 1
 768 512 l 1
 640 512 l 1
EndSplineSet
EndChar

StartChar: S
Encoding: 83 83 31
Width: 896
VWidth: 0
Flags: HW
LayerCount: 2
Back
Fore
SplineSet
256 0 m 1
 256 128 l 1
 384 128 l 1
 512 128 l 1
 640 128 l 1
 640 0 l 1
 512 0 l 1
 384 0 l 1
 256 0 l 1
128 128 m 1
 128 256 l 1
 256 256 l 1
 256 128 l 1
 128 128 l 1
640 128 m 1
 640 256 l 1
 640 384 l 1
 768 384 l 1
 768 256 l 1
 768 128 l 1
 640 128 l 1
256 384 m 1
 256 512 l 1
 384 512 l 1
 512 512 l 1
 640 512 l 1
 640 384 l 1
 512 384 l 1
 384 384 l 1
 256 384 l 1
128 512 m 1
 128 640 l 1
 128 768 l 1
 256 768 l 1
 256 640 l 1
 256 512 l 1
 128 512 l 1
640 640 m 1
 640 768 l 1
 768 768 l 1
 768 640 l 1
 640 640 l 1
256 768 m 1
 256 896 l 1
 384 896 l 1
 512 896 l 1
 640 896 l 1
 640 768 l 1
 512 768 l 1
 384 768 l 1
 256 768 l 1
256 0 m 1
 256 128 l 1
 384 128 l 1
 512 128 l 1
 640 128 l 1
 640 0 l 1
 512 0 l 1
 384 0 l 1
 256 0 l 1
128 128 m 1
 128 256 l 1
 256 256 l 1
 256 128 l 1
 128 128 l 1
640 128 m 1
 640 256 l 1
 640 384 l 1
 768 384 l 1
 768 256 l 1
 768 128 l 1
 640 128 l 1
256 384 m 1
 256 512 l 1
 384 512 l 1
 512 512 l 1
 640 512 l 1
 640 384 l 1
 512 384 l 1
 384 384 l 1
 256 384 l 1
128 512 m 1
 128 640 l 1
 128 768 l 1
 256 768 l 1
 256 640 l 1
 256 512 l 1
 128 512 l 1
640 640 m 1
 640 768 l 1
 768 768 l 1
 768 640 l 1
 640 640 l 1
256 768 m 1
 256 896 l 1
 384 896 l 1
 512 896 l 1
 640 896 l 1
 640 768 l 1
 512 768 l 1
 384 768 l 1
 256 768 l 1
EndSplineSet
EndChar

StartChar: T
Encoding: 84 84 32
Width: 896
VWidth: 0
Flags: HW
LayerCount: 2
Back
Fore
SplineSet
384 0 m 1
 384 128 l 1
 384 256 l 1
 384 384 l 1
 384 512 l 1
 384 640 l 1
 384 768 l 1
 256 768 l 1
 128 768 l 1
 128 896 l 1
 256 896 l 1
 384 896 l 1
 512 896 l 1
 640 896 l 1
 768 896 l 1
 768 768 l 1
 640 768 l 1
 512 768 l 1
 512 640 l 1
 512 512 l 1
 512 384 l 1
 512 256 l 1
 512 128 l 1
 512 0 l 1
 384 0 l 1
384 0 m 1
 384 128 l 1
 384 256 l 1
 384 384 l 1
 384 512 l 1
 384 640 l 1
 384 768 l 1
 256 768 l 1
 128 768 l 1
 128 896 l 1
 256 896 l 1
 384 896 l 1
 512 896 l 1
 640 896 l 1
 768 896 l 1
 768 768 l 1
 640 768 l 1
 512 768 l 1
 512 640 l 1
 512 512 l 1
 512 384 l 1
 512 256 l 1
 512 128 l 1
 512 0 l 1
 384 0 l 1
EndSplineSet
EndChar

StartChar: U
Encoding: 85 85 33
Width: 896
VWidth: 0
Flags: HW
LayerCount: 2
Back
Fore
SplineSet
256 0 m 1
 256 128 l 1
 384 128 l 1
 512 128 l 1
 640 128 l 1
 640 0 l 1
 512 0 l 1
 384 0 l 1
 256 0 l 1
128 128 m 1
 128 256 l 1
 128 384 l 1
 128 512 l 1
 128 640 l 1
 128 768 l 1
 128 896 l 1
 256 896 l 1
 256 768 l 1
 256 640 l 1
 256 512 l 1
 256 384 l 1
 256 256 l 1
 256 128 l 1
 128 128 l 1
640 128 m 1
 640 256 l 1
 640 384 l 1
 640 512 l 1
 640 640 l 1
 640 768 l 1
 640 896 l 1
 768 896 l 1
 768 768 l 1
 768 640 l 1
 768 512 l 1
 768 384 l 1
 768 256 l 1
 768 128 l 1
 640 128 l 1
256 0 m 1
 256 128 l 1
 384 128 l 1
 512 128 l 1
 640 128 l 1
 640 0 l 1
 512 0 l 1
 384 0 l 1
 256 0 l 1
128 128 m 1
 128 256 l 1
 128 384 l 1
 128 512 l 1
 128 640 l 1
 128 768 l 1
 128 896 l 1
 256 896 l 1
 256 768 l 1
 256 640 l 1
 256 512 l 1
 256 384 l 1
 256 256 l 1
 256 128 l 1
 128 128 l 1
640 128 m 1
 640 256 l 1
 640 384 l 1
 640 512 l 1
 640 640 l 1
 640 768 l 1
 640 896 l 1
 768 896 l 1
 768 768 l 1
 768 640 l 1
 768 512 l 1
 768 384 l 1
 768 256 l 1
 768 128 l 1
 640 128 l 1
EndSplineSet
EndChar

StartChar: V
Encoding: 86 86 34
Width: 896
VWidth: 0
Flags: HW
LayerCount: 2
Back
Fore
SplineSet
384 0 m 1
 384 128 l 1
 512 128 l 1
 512 0 l 1
 384 0 l 1
256 128 m 1
 256 256 l 1
 384 256 l 1
 384 128 l 1
 256 128 l 1
512 128 m 1
 512 256 l 1
 640 256 l 1
 640 128 l 1
 512 128 l 1
128 256 m 1
 128 384 l 1
 128 512 l 1
 128 640 l 1
 128 768 l 1
 128 896 l 1
 256 896 l 1
 256 768 l 1
 256 640 l 1
 256 512 l 1
 256 384 l 1
 256 256 l 1
 128 256 l 1
640 256 m 1
 640 384 l 1
 640 512 l 1
 640 640 l 1
 640 768 l 1
 640 896 l 1
 768 896 l 1
 768 768 l 1
 768 640 l 1
 768 512 l 1
 768 384 l 1
 768 256 l 1
 640 256 l 1
384 0 m 1
 384 128 l 1
 512 128 l 1
 512 0 l 1
 384 0 l 1
256 128 m 1
 256 256 l 1
 384 256 l 1
 384 128 l 1
 256 128 l 1
512 128 m 1
 512 256 l 1
 640 256 l 1
 640 128 l 1
 512 128 l 1
128 256 m 1
 128 384 l 1
 128 512 l 1
 128 640 l 1
 128 768 l 1
 128 896 l 1
 256 896 l 1
 256 768 l 1
 256 640 l 1
 256 512 l 1
 256 384 l 1
 256 256 l 1
 128 256 l 1
640 256 m 1
 640 384 l 1
 640 512 l 1
 640 640 l 1
 640 768 l 1
 640 896 l 1
 768 896 l 1
 768 768 l 1
 768 640 l 1
 768 512 l 1
 768 384 l 1
 768 256 l 1
 640 256 l 1
EndSplineSet
EndChar

StartChar: W
Encoding: 87 87 35
Width: 896
VWidth: 0
Flags: HW
LayerCount: 2
Back
Fore
SplineSet
128 0 m 1
 128 128 l 1
 128 256 l 1
 128 384 l 1
 128 512 l 1
 128 640 l 1
 128 768 l 1
 128 896 l 1
 256 896 l 1
 256 768 l 1
 256 640 l 1
 256 512 l 1
 256 384 l 1
 256 256 l 1
 384 256 l 1
 384 128 l 1
 256 128 l 1
 256 0 l 1
 128 0 l 1
640 0 m 1
 640 128 l 1
 512 128 l 1
 512 256 l 1
 640 256 l 1
 640 384 l 1
 640 512 l 1
 640 640 l 1
 640 768 l 1
 640 896 l 1
 768 896 l 1
 768 768 l 1
 768 640 l 1
 768 512 l 1
 768 384 l 1
 768 256 l 1
 768 128 l 1
 768 0 l 1
 640 0 l 1
384 256 m 1
 384 384 l 1
 384 512 l 1
 512 512 l 1
 512 384 l 1
 512 256 l 1
 384 256 l 1
128 0 m 1
 128 128 l 1
 128 256 l 1
 128 384 l 1
 128 512 l 1
 128 640 l 1
 128 768 l 1
 128 896 l 1
 256 896 l 1
 256 768 l 1
 256 640 l 1
 256 512 l 1
 256 384 l 1
 256 256 l 1
 384 256 l 1
 384 128 l 1
 256 128 l 1
 256 0 l 1
 128 0 l 1
640 0 m 1
 640 128 l 1
 512 128 l 1
 512 256 l 1
 640 256 l 1
 640 384 l 1
 640 512 l 1
 640 640 l 1
 640 768 l 1
 640 896 l 1
 768 896 l 1
 768 768 l 1
 768 640 l 1
 768 512 l 1
 768 384 l 1
 768 256 l 1
 768 128 l 1
 768 0 l 1
 640 0 l 1
384 256 m 1
 384 384 l 1
 384 512 l 1
 512 512 l 1
 512 384 l 1
 512 256 l 1
 384 256 l 1
EndSplineSet
EndChar

StartChar: X
Encoding: 88 88 36
Width: 896
VWidth: 0
Flags: HW
LayerCount: 2
Back
Fore
SplineSet
128 0 m 1
 128 128 l 1
 128 256 l 1
 256 256 l 1
 256 128 l 1
 256 0 l 1
 128 0 l 1
640 0 m 1
 640 128 l 1
 640 256 l 1
 768 256 l 1
 768 128 l 1
 768 0 l 1
 640 0 l 1
256 256 m 1
 256 384 l 1
 384 384 l 1
 384 256 l 1
 256 256 l 1
512 256 m 1
 512 384 l 1
 640 384 l 1
 640 256 l 1
 512 256 l 1
384 384 m 1
 384 512 l 1
 512 512 l 1
 512 384 l 1
 384 384 l 1
256 512 m 1
 256 640 l 1
 384 640 l 1
 384 512 l 1
 256 512 l 1
512 512 m 1
 512 640 l 1
 640 640 l 1
 640 512 l 1
 512 512 l 1
128 640 m 1
 128 768 l 1
 128 896 l 1
 256 896 l 1
 256 768 l 1
 256 640 l 1
 128 640 l 1
640 640 m 1
 640 768 l 1
 640 896 l 1
 768 896 l 1
 768 768 l 1
 768 640 l 1
 640 640 l 1
128 0 m 1
 128 128 l 1
 128 256 l 1
 256 256 l 1
 256 128 l 1
 256 0 l 1
 128 0 l 1
640 0 m 1
 640 128 l 1
 640 256 l 1
 768 256 l 1
 768 128 l 1
 768 0 l 1
 640 0 l 1
256 256 m 1
 256 384 l 1
 384 384 l 1
 384 256 l 1
 256 256 l 1
512 256 m 1
 512 384 l 1
 640 384 l 1
 640 256 l 1
 512 256 l 1
384 384 m 1
 384 512 l 1
 512 512 l 1
 512 384 l 1
 384 384 l 1
256 512 m 1
 256 640 l 1
 384 640 l 1
 384 512 l 1
 256 512 l 1
512 512 m 1
 512 640 l 1
 640 640 l 1
 640 512 l 1
 512 512 l 1
128 640 m 1
 128 768 l 1
 128 896 l 1
 256 896 l 1
 256 768 l 1
 256 640 l 1
 128 640 l 1
640 640 m 1
 640 768 l 1
 640 896 l 1
 768 896 l 1
 768 768 l 1
 768 640 l 1
 640 640 l 1
EndSplineSet
EndChar

StartChar: Y
Encoding: 89 89 37
Width: 896
VWidth: 0
Flags: HW
LayerCount: 2
Back
Fore
SplineSet
384 0 m 1
 384 128 l 1
 384 256 l 1
 384 384 l 1
 384 512 l 1
 512 512 l 1
 512 384 l 1
 512 256 l 1
 512 128 l 1
 512 0 l 1
 384 0 l 1
256 512 m 1
 256 640 l 1
 384 640 l 1
 384 512 l 1
 256 512 l 1
512 512 m 1
 512 640 l 1
 640 640 l 1
 640 512 l 1
 512 512 l 1
128 640 m 1
 128 768 l 1
 128 896 l 1
 256 896 l 1
 256 768 l 1
 256 640 l 1
 128 640 l 1
640 640 m 1
 640 768 l 1
 640 896 l 1
 768 896 l 1
 768 768 l 1
 768 640 l 1
 640 640 l 1
384 0 m 1
 384 128 l 1
 384 256 l 1
 384 384 l 1
 384 512 l 1
 512 512 l 1
 512 384 l 1
 512 256 l 1
 512 128 l 1
 512 0 l 1
 384 0 l 1
256 512 m 1
 256 640 l 1
 384 640 l 1
 384 512 l 1
 256 512 l 1
512 512 m 1
 512 640 l 1
 640 640 l 1
 640 512 l 1
 512 512 l 1
128 640 m 1
 128 768 l 1
 128 896 l 1
 256 896 l 1
 256 768 l 1
 256 640 l 1
 128 640 l 1
640 640 m 1
 640 768 l 1
 640 896 l 1
 768 896 l 1
 768 768 l 1
 768 640 l 1
 640 640 l 1
EndSplineSet
EndChar

StartChar: Z
Encoding: 90 90 38
Width: 896
VWidth: 0
Flags: HW
LayerCount: 2
Back
Fore
SplineSet
128 0 m 1
 128 128 l 1
 128 256 l 1
 256 256 l 1
 256 128 l 1
 384 128 l 1
 512 128 l 1
 640 128 l 1
 768 128 l 1
 768 0 l 1
 640 0 l 1
 512 0 l 1
 384 0 l 1
 256 0 l 1
 128 0 l 1
256 256 m 1
 256 384 l 1
 384 384 l 1
 384 256 l 1
 256 256 l 1
384 384 m 1
 384 512 l 1
 512 512 l 1
 512 384 l 1
 384 384 l 1
512 512 m 1
 512 640 l 1
 640 640 l 1
 640 512 l 1
 512 512 l 1
640 640 m 1
 640 768 l 1
 512 768 l 1
 384 768 l 1
 256 768 l 1
 128 768 l 1
 128 896 l 1
 256 896 l 1
 384 896 l 1
 512 896 l 1
 640 896 l 1
 768 896 l 1
 768 768 l 1
 768 640 l 1
 640 640 l 1
128 0 m 1
 128 128 l 1
 128 256 l 1
 256 256 l 1
 256 128 l 1
 384 128 l 1
 512 128 l 1
 640 128 l 1
 768 128 l 1
 768 0 l 1
 640 0 l 1
 512 0 l 1
 384 0 l 1
 256 0 l 1
 128 0 l 1
256 256 m 1
 256 384 l 1
 384 384 l 1
 384 256 l 1
 256 256 l 1
384 384 m 1
 384 512 l 1
 512 512 l 1
 512 384 l 1
 384 384 l 1
512 512 m 1
 512 640 l 1
 640 640 l 1
 640 512 l 1
 512 512 l 1
640 640 m 1
 640 768 l 1
 512 768 l 1
 384 768 l 1
 256 768 l 1
 128 768 l 1
 128 896 l 1
 256 896 l 1
 384 896 l 1
 512 896 l 1
 640 896 l 1
 768 896 l 1
 768 768 l 1
 768 640 l 1
 640 640 l 1
EndSplineSet
EndChar

StartChar: percent
Encoding: 37 37 39
Width: 896
VWidth: 0
Flags: HWO
LayerCount: 2
Back
Fore
SplineSet
512 0 m 1
 512 128 l 1
 512 256 l 1
 640 256 l 1
 768 256 l 1
 768 128 l 1
 768 0 l 1
 640 0 l 1
 512 0 l 1
128 128 m 1
 128 256 l 1
 256 256 l 1
 256 128 l 1
 128 128 l 1
256 256 m 1
 256 384 l 1
 384 384 l 1
 384 256 l 1
 256 256 l 1
384 384 m 1
 384 512 l 1
 512 512 l 1
 512 384 l 1
 384 384 l 1
512 512 m 1
 512 640 l 1
 640 640 l 1
 640 512 l 1
 512 512 l 1
128 640 m 1
 128 768 l 1
 128 896 l 1
 256 896 l 1
 384 896 l 1
 384 768 l 1
 384 640 l 1
 256 640 l 1
 128 640 l 1
640 640 m 1
 640 768 l 1
 768 768 l 1
 768 640 l 1
 640 640 l 1
EndSplineSet
EndChar

